<svg width="40" height="40" viewBox="0 0 40 40" fill="none" xmlns="http://www.w3.org/2000/svg">
<circle cx="20" cy="20" r="20" fill="#1EA779"/>
<path d="M28.1264 14.2733C27.9391 14.0654 27.6448 14.0654 27.4574 14.2733L17.6906 24.7836C17.6103 24.8726 17.5033 24.8726 17.423 24.7836L12.5797 19.5581C12.3924 19.3503 12.098 19.3503 11.9107 19.5581C11.7234 19.7659 11.7234 20.0925 11.9107 20.3004L16.754 25.5258C16.9681 25.7633 17.2624 25.8821 17.53 25.8821C17.8244 25.8821 18.092 25.7633 18.306 25.5258L28.0729 15.0155C28.287 14.8077 28.287 14.4811 28.1264 14.2733Z" fill="white"/>
<path fill-rule="evenodd" clip-rule="evenodd" d="M29.0302 13.5188L29.0574 13.554C29.5496 14.1911 29.5671 15.1772 28.9194 15.8329L19.173 26.3212C18.7464 26.7905 18.1686 27.0586 17.53 27.0586C16.9338 27.0586 16.3244 26.8022 15.8866 26.3206L11.0367 21.0881C10.446 20.4326 10.4461 19.4259 11.0368 18.7705C11.6891 18.0468 12.7912 18.0442 13.4466 18.7627L17.5577 23.1983L26.5912 13.4772C27.2467 12.7594 28.3483 12.7622 29.0003 13.4856L29.0302 13.5188ZM12.5797 19.5581C12.3924 19.3503 12.098 19.3503 11.9107 19.5581C11.747 19.7398 11.7264 20.0122 11.8489 20.2167C11.8513 20.2207 11.8538 20.2247 11.8563 20.2286C11.8722 20.2537 11.8904 20.2777 11.9107 20.3004L16.754 25.5258C16.9681 25.7633 17.2624 25.8821 17.53 25.8821C17.8244 25.8821 18.092 25.7633 18.306 25.5258L28.0729 15.0155C28.1038 14.9856 28.1302 14.9531 28.1523 14.9189C28.155 14.9148 28.1576 14.9107 28.1601 14.9065C28.2828 14.7053 28.261 14.4475 28.1264 14.2733C27.9391 14.0654 27.6448 14.0654 27.4574 14.2733L17.6906 24.7836C17.6564 24.8215 17.6174 24.8433 17.5776 24.8489C17.5706 24.8499 17.5636 24.8504 17.5566 24.8504C17.5477 24.8504 17.5389 24.8495 17.53 24.8479C17.5238 24.8468 17.5175 24.8452 17.5113 24.8433C17.5063 24.8417 17.5013 24.8399 17.4964 24.8378C17.4706 24.8268 17.4457 24.8088 17.423 24.7836L12.5797 19.5581Z" fill="white"/>
</svg>