<svg width="46" height="46" viewBox="0 0 46 46" fill="none" xmlns="http://www.w3.org/2000/svg">
<g clip-path="url(#clip0_29_193)">
<path d="M35.5088 6.25442C37.8455 6.25442 39.7456 8.15451 39.7456 10.4912V35.5088C39.7456 37.8455 37.8455 39.7456 35.5088 39.7456H10.4912C8.15451 39.7456 6.25442 37.8455 6.25442 35.5088V10.4912C6.25442 8.15451 8.15451 6.25442 10.4912 6.25442H35.5088ZM35.5088 0H10.4912C4.69707 0 0 4.69707 0 10.4912V35.5088C0 41.3029 4.69707 46 10.4912 46H35.5088C41.3029 46 46 41.3029 46 35.5088V10.4912C46 4.69707 41.3029 0 35.5088 0Z" fill="#4272F9"/>
<path d="M32.2202 24.481C31.3233 24.481 30.5153 24.8588 29.9449 25.4642L27.4231 22.9425L29.8335 20.532C30.4065 21.1712 31.2383 21.574 32.1639 21.574C33.8914 21.574 35.2912 20.1743 35.2912 18.4468V13.7785C35.2912 13.771 35.2912 13.7647 35.2912 13.7572C35.2912 13.7134 35.2912 13.6684 35.2874 13.6246C35.2862 13.5971 35.2836 13.5708 35.2811 13.5446C35.2799 13.5208 35.2774 13.497 35.2761 13.472C35.2724 13.4395 35.2686 13.4082 35.2649 13.3757C35.2624 13.3569 35.2611 13.3394 35.2574 13.3207C35.2524 13.2856 35.2461 13.2519 35.2399 13.2181C35.2374 13.2031 35.2349 13.1868 35.2311 13.1718C35.2249 13.1368 35.2161 13.103 35.2086 13.0692C35.2048 13.0542 35.2011 13.038 35.1973 13.023C35.1886 12.9904 35.1798 12.9579 35.1711 12.9254C35.1661 12.9091 35.1623 12.8916 35.1573 12.8753C35.1486 12.8453 35.1385 12.8153 35.1285 12.7853C35.1223 12.7665 35.116 12.7465 35.1098 12.7277C35.0998 12.7015 35.0898 12.674 35.0798 12.6477C35.071 12.6264 35.0635 12.6039 35.0535 12.5826C35.0435 12.5589 35.0335 12.5364 35.0235 12.5138C35.0122 12.4888 35.0022 12.4651 34.9897 12.44C34.9809 12.42 34.9709 12.4013 34.9609 12.3812C34.9472 12.355 34.9347 12.3275 34.9196 12.3012C34.9109 12.2837 34.9009 12.2674 34.8921 12.2512C34.8771 12.2236 34.8609 12.1949 34.8446 12.1673C34.8358 12.1523 34.8258 12.1373 34.8158 12.1223C34.7983 12.0948 34.7808 12.066 34.762 12.0385C34.752 12.0235 34.742 12.0085 34.7308 11.9947C34.712 11.9685 34.6932 11.9409 34.6732 11.9147C34.6607 11.8984 34.6482 11.8821 34.6357 11.8659C34.6169 11.8421 34.5994 11.8184 34.5794 11.7946C34.5619 11.7733 34.5444 11.7533 34.5256 11.732C34.5106 11.7145 34.4956 11.6958 34.4793 11.6783C34.4105 11.6019 34.3367 11.5281 34.2604 11.4593C34.2429 11.4431 34.2254 11.4293 34.2079 11.4131C34.1866 11.3956 34.1666 11.3768 34.1453 11.3593C34.1228 11.3405 34.0991 11.323 34.0753 11.3042C34.059 11.2917 34.0428 11.278 34.0253 11.2655C33.999 11.2467 33.9727 11.2279 33.9465 11.2092C33.9314 11.1992 33.9164 11.1879 33.9014 11.1779C33.8739 11.1591 33.8464 11.1429 33.8189 11.1254C33.8039 11.1154 33.7876 11.1053 33.7726 11.0966C33.7451 11.0803 33.7175 11.0641 33.69 11.0491C33.6725 11.039 33.6563 11.0303 33.6387 11.0203C33.6125 11.0065 33.5862 10.9928 33.5599 10.9803C33.5399 10.9703 33.5212 10.9602 33.5011 10.9515C33.4774 10.9402 33.4524 10.929 33.4286 10.919C33.4048 10.909 33.3823 10.899 33.3585 10.8889C33.3373 10.8802 33.316 10.8714 33.2947 10.8639C33.2685 10.8539 33.241 10.8427 33.2134 10.8339C33.1947 10.8277 33.1759 10.8214 33.1571 10.8151C33.1271 10.8051 33.0971 10.7951 33.0658 10.7864C33.0496 10.7814 33.0321 10.7764 33.0158 10.7726C32.9833 10.7639 32.9508 10.7538 32.917 10.7463C32.902 10.7426 32.8857 10.7388 32.8707 10.7351C32.8369 10.7276 32.8019 10.7188 32.7681 10.7126C32.7519 10.7101 32.7368 10.7076 32.7206 10.7038C32.6868 10.6976 32.653 10.6913 32.618 10.6863C32.5993 10.6838 32.5817 10.6813 32.563 10.6788C32.5317 10.675 32.4992 10.67 32.4667 10.6675C32.4429 10.665 32.4191 10.6638 32.3954 10.6625C32.3691 10.66 32.3416 10.6575 32.3153 10.6563C32.2715 10.6538 32.2265 10.6538 32.1827 10.6525C32.1752 10.6525 32.1689 10.6525 32.1614 10.6525H27.607C25.8795 10.6525 24.4798 12.0523 24.4798 13.7797C24.4798 14.6766 24.8575 15.4847 25.463 16.0551L22.9987 18.5193L20.5908 16.1114C21.1962 15.541 21.574 14.7329 21.574 13.836C21.574 12.1086 20.1742 10.7088 18.4468 10.7088H13.7785C12.051 10.7088 10.6512 12.1086 10.6512 13.836V18.3905C10.6512 20.118 12.051 21.5177 13.7785 21.5177C14.7041 21.5177 15.5359 21.1149 16.1089 20.4757L18.5756 22.9425L16.1114 25.4067C15.5409 24.8013 14.7329 24.4235 13.836 24.4235C12.1085 24.4235 10.7088 25.8232 10.7088 27.5507V32.219C10.7088 33.9465 12.1085 35.3462 13.836 35.3462H18.3905C20.1179 35.3462 21.5177 33.9465 21.5177 32.219C21.5177 31.2934 21.1149 30.4615 20.4757 29.8886L23 27.3643L25.4667 29.8311C24.8275 30.404 24.4247 31.2358 24.4247 32.1615C24.4247 33.8889 25.8245 35.2887 27.5519 35.2887H32.2202C32.2277 35.2887 32.234 35.2887 32.2415 35.2887C32.2853 35.2887 32.3303 35.2887 32.3741 35.2849C32.4016 35.2837 32.4279 35.2812 32.4542 35.2787C32.4779 35.2774 32.5017 35.2749 32.5267 35.2737C32.5592 35.2699 32.5905 35.2662 32.623 35.2624C32.6418 35.2599 32.6593 35.2587 32.6781 35.2549C32.7131 35.2499 32.7469 35.2437 32.7806 35.2374C32.7956 35.2349 32.8119 35.2324 32.8269 35.2286C32.8619 35.2224 32.8957 35.2136 32.9295 35.2061C32.9445 35.2024 32.9608 35.1986 32.9758 35.1949C33.0083 35.1861 33.0408 35.1774 33.0733 35.1686C33.0896 35.1636 33.1071 35.1598 33.1234 35.1548C33.1534 35.1461 33.1834 35.1361 33.2134 35.1261C33.2322 35.1198 33.2522 35.1136 33.271 35.1073C33.2972 35.0973 33.3248 35.0873 33.351 35.0773C33.3723 35.0685 33.3948 35.061 33.4161 35.051C33.4398 35.041 33.4624 35.031 33.4849 35.021C33.5099 35.0097 33.5337 34.9997 33.5587 34.9872C33.5787 34.9785 33.5975 34.9685 33.6175 34.9585C33.6437 34.9447 33.6713 34.9322 33.6975 34.9172C33.715 34.9084 33.7313 34.8984 33.7476 34.8897C33.7751 34.8746 33.8039 34.8584 33.8314 34.8421C33.8464 34.8334 33.8614 34.8234 33.8764 34.8133C33.9039 34.7958 33.9327 34.7783 33.9602 34.7596C33.9752 34.7496 33.9902 34.7395 34.004 34.7283C34.0303 34.7095 34.0578 34.6908 34.0841 34.6707C34.1003 34.6582 34.1166 34.6457 34.1328 34.6332C34.1566 34.6145 34.1804 34.5969 34.2041 34.5769C34.2254 34.5594 34.2454 34.5419 34.2667 34.5231C34.2842 34.5081 34.303 34.4931 34.3205 34.4769C34.3968 34.4081 34.4706 34.3343 34.5394 34.258C34.5556 34.2404 34.5694 34.2229 34.5857 34.2054C34.6032 34.1842 34.6219 34.1641 34.6394 34.1429C34.6582 34.1204 34.6757 34.0966 34.6945 34.0728C34.707 34.0566 34.7208 34.0403 34.7333 34.0228C34.752 33.9965 34.7708 33.9702 34.7895 33.944C34.7996 33.929 34.8108 33.914 34.8208 33.899C34.8396 33.8714 34.8558 33.8439 34.8734 33.8164C34.8834 33.8014 34.8934 33.7851 34.9021 33.7701C34.9184 33.7426 34.9347 33.7151 34.9497 33.6876C34.9597 33.67 34.9684 33.6538 34.9784 33.6363C34.9922 33.61 35.006 33.5837 35.0185 33.5575C35.0285 33.5374 35.0385 33.5187 35.0472 33.4987C35.0585 33.4749 35.0697 33.4499 35.0798 33.4261C35.0898 33.4023 35.0998 33.3798 35.1098 33.3561C35.1185 33.3348 35.1273 33.3135 35.1348 33.2923C35.1448 33.266 35.1561 33.2385 35.1648 33.211C35.1711 33.1922 35.1773 33.1734 35.1836 33.1547C35.1936 33.1247 35.2036 33.0946 35.2123 33.0634C35.2174 33.0471 35.2224 33.0296 35.2261 33.0133C35.2349 32.9808 35.2449 32.9483 35.2524 32.9145C35.2561 32.8995 35.2599 32.8832 35.2636 32.8682C35.2711 32.8344 35.2799 32.7994 35.2861 32.7656C35.2887 32.7494 35.2912 32.7344 35.2949 32.7181C35.3012 32.6843 35.3074 32.6506 35.3124 32.6155C35.3149 32.5968 35.3174 32.5793 35.3199 32.5605C35.3237 32.5292 35.3287 32.4967 35.3312 32.4642C35.3337 32.4404 35.3349 32.4167 35.3362 32.3929C35.3387 32.3666 35.3412 32.3391 35.3424 32.3128C35.3449 32.2691 35.3449 32.224 35.3462 32.1802C35.3462 32.1727 35.3462 32.1665 35.3462 32.159V27.6045C35.3462 25.877 33.9465 24.4773 32.219 24.4773L32.2202 24.481Z" fill="#97B2FC"/>
</g>
<defs>
<clipPath id="clip0_29_193">
<rect width="46" height="46" fill="white"/>
</clipPath>
</defs>
</svg>
